# xmcd
#
# Track frame offsets: 
#        150
#        14010
#        28785
#        48510
#        63510
#        82260
#        105735
#        111735
#        144810
#        162285
#        181860
#        203310
#        216735
#        233535
#        248385
#        264585
#
# Disc length: 3941 seconds
#
# Revision: 0
# Processed by: cddbd v1.5.2PL0 Copyright (c) Steve Scherf et al.
# Submitted via: ExactAudioCopy v0.99pb5
#
DISCID=e00f6310
DTITLE=Jouni J - Sek‰ Ett‰
DYEAR=2010
DGENRE=Hip-Hop
TTITLE0=Yo, check it out now! (feat. Jans)
TTITLE1=Tien risteyksess‰
TTITLE2=Iltah‰m‰r‰ss‰
TTITLE3=Jenkit venaa ei
TTITLE4=Jouni taas taivaalla
TTITLE5=Harmaat niityt (feat. Markkanen)
TTITLE6=Seitsem‰n
TTITLE7=Ota valta pois (feat. Markkanen)
TTITLE8=Kauaksi t‰‰lt‰ (feat. Jans and Talonpoika Lalli)
TTITLE9=Miss‰?
TTITLE10=Sole mikh‰‰ ku on Rollossa varttunu (feat. Talonpoika Lalli)
TTITLE11=Liekeiss‰
TTITLE12=Laidasta Laitaan
TTITLE13=Tied‰t (feat. Markkanen)
TTITLE14=Loppujen lopuksi tuntuu jo hyv‰lt‰ (feat. Agistas)
TTITLE15=Bonus
EXTD=
EXTT0=
EXTT1=
EXTT2=
EXTT3=
EXTT4=
EXTT5=
EXTT6=
EXTT7=
EXTT8=
EXTT9=
EXTT10=
EXTT11=
EXTT12=
EXTT13=
EXTT14=
EXTT15=
PLAYORDER=
